<!-- Generated by IcoMoon.io -->
<svg version="1.1" xmlns="http://www.w3.org/2000/svg" width="1024" height="1024" viewBox="0 0 1024 1024">
<title></title>
<g id="icomoon-ignore">
</g>
<path d="M693.845 567.168c-39.893 0-75.605 17.664-100.096 45.483l-62.72-44.416c6.656-18.347 10.496-38.016 10.496-58.624 0-20.267-3.669-39.595-10.112-57.685l62.592-43.947c24.491 27.691 60.117 45.227 99.883 45.227 73.6 0 133.504-59.861 133.504-133.504s-59.904-133.504-133.504-133.504-133.504 59.861-133.504 133.504c0 13.184 2.005 25.899 5.547 37.931l-62.635 43.947c-26.155-32.384-63.829-55.083-106.752-61.995v-75.477c60.459-12.715 106.027-66.432 106.027-130.603 0-73.643-59.904-133.504-133.504-133.504s-133.461 59.861-133.461 133.504c0 63.317 44.373 116.395 103.637 130.005v76.459c-80.853 14.208-142.549 84.779-142.549 169.643 0 85.291 62.293 156.117 143.787 169.856v80.725c-59.861 13.141-104.832 66.56-104.832 130.304-0.043 73.643 59.819 133.504 133.419 133.504s133.504-59.861 133.504-133.504c0-63.787-44.971-117.163-104.832-130.304v-80.725c41.216-6.955 78.507-28.629 104.96-61.056l63.147 44.715c-3.499 11.904-5.461 24.491-5.461 37.547 0 73.6 59.904 133.504 133.504 133.504s133.504-59.861 133.504-133.504-59.947-133.504-133.547-133.504zM693.845 255.019c35.712 0 64.725 29.056 64.725 64.725s-29.013 64.725-64.725 64.725c-35.669 0-64.725-29.056-64.725-64.725s29.056-64.725 64.725-64.725zM304.341 133.504c0-35.669 29.013-64.725 64.725-64.725s64.725 29.056 64.725 64.725-29.013 64.725-64.725 64.725-64.725-29.056-64.725-64.725zM433.792 890.496c0 35.669-29.013 64.725-64.725 64.725s-64.725-29.056-64.725-64.725 29.013-64.725 64.725-64.725 64.725 29.056 64.725 64.725zM369.067 599.893c-49.792 0-90.283-40.491-90.283-90.283s40.491-90.283 90.283-90.283 90.283 40.491 90.283 90.283-40.491 90.283-90.283 90.283zM693.845 765.397c-35.712 0-64.725-29.056-64.725-64.725s29.013-64.725 64.725-64.725 64.725 29.056 64.725 64.725-29.013 64.725-64.725 64.725z"></path>
</svg>
