<!-- Generated by IcoMoon.io -->
<svg version="1.1" xmlns="http://www.w3.org/2000/svg" width="1024" height="1024" viewBox="0 0 1024 1024">
<title></title>
<g id="icomoon-ignore">
</g>
<path fill="#4285f4" d="M520.107 101.547c-2.75-0.068-5.989-0.107-9.238-0.107-183.019 0-337.234 123.323-384.079 291.404l-0.667 2.804c2.261-0.853-2.347 0.555 0 0-165.333 108.843-167.339 346.027-10.539 466.816l0.256-0.299-0.299 1.28c47.436 36.114 107.515 57.859 172.673 57.859 0.45 0 0.899-0.001 1.348-0.003h220.646l1.28 1.28h221.525c285.312 2.261 400.043-367.147 163.627-526.933-21.5-77.643-63.565-143.629-119.964-193.87l-0.399-0.349-1.835 1.835 0.256-2.133c-67.685-59.921-156.565-97.269-254.118-99.575l-0.474-0.009zM504.832 278.443c53.077-1.707 107.435 15.701 148.736 49.067 48.724 40.869 79.484 101.779 79.484 169.873 0 1.449-0.014 2.895-0.042 4.337l0.003-0.216v22.101c150.613-2.987 150.613 224.512 0 221.568h-221.568l-0.341 0.384v-1.707h-221.611c-16.498 0-32.151-3.615-46.211-10.097l0.686 0.284h0.043c-38.712-17.84-65.1-56.308-65.1-100.94 0-61.196 49.609-110.805 110.805-110.805 44.632 0 83.1 26.388 100.655 64.413l0.284 0.687 128.555-128.512c-42.053-54.437-102.218-93.098-171.342-106.998l-1.842-0.309c0.768-0.427 1.707-1.109 2.304-0.981 39.061-42.769 94.4-70.102 156.142-72.14l0.359-0.009z"></path>
</svg>
