<!-- Generated by IcoMoon.io -->
<svg version="1.1" xmlns="http://www.w3.org/2000/svg" width="1024" height="1024" viewBox="0 0 1024 1024">
<title></title>
<g id="icomoon-ignore">
</g>
<path fill="#277a9f" d="M712.021 766.677c16.555-11.605 54.357 13.867 84.48 56.832s41.088 87.211 24.491 98.816c-16.555 11.605-54.4-13.867-84.48-56.832s-41.088-87.211-24.491-98.816zM315.904 766.677c-16.555-11.605-54.357 13.867-84.48 56.832s-41.088 87.211-24.491 98.816c16.555 11.605 54.4-13.867 84.48-56.832s41.088-87.211 24.491-98.816zM513.749 834.005c-20.224 0-36.608 42.539-36.608 95.019s16.384 95.019 36.608 95.019 36.608-42.539 36.608-95.019-16.384-95.019-36.608-95.019zM712.021 257.323c16.555 11.605 54.357-13.867 84.48-56.832s41.088-87.211 24.491-98.816c-16.555-11.605-54.4 13.867-84.48 56.832s-41.088 87.211-24.491 98.816zM315.904 257.323c-16.555 11.605-54.357-13.867-84.48-56.832s-41.088-87.211-24.491-98.816c16.555-11.605 54.4 13.867 84.48 56.832s41.088 87.211 24.491 98.816zM513.749 189.995c-20.224 0-36.608-42.539-36.608-95.019s16.384-95.019 36.608-95.019 36.608 42.539 36.608 95.019-16.384 95.019-36.608 95.019zM20.096 386.816h70.528v99.2h79.531v-99.2h70.528v266.453h-70.528v-105.771h-79.531v105.771h-70.528zM299.648 386.816h172.16v59.051h-101.675v41.813h86.912v59.051h-86.912v47.573h105.771v59.051h-176.256zM527.573 386.816h70.528v207.445h100.864v59.051h-171.349zM744.832 386.816h72.96l41.813 110.677 14.763 43.435h1.621l14.763-43.435 40.192-110.677h72.96v266.453h-65.579v-78.72c0-6.827 0.341-14.336 1.024-22.528s1.451-16.597 2.261-25.216 1.792-17.024 2.859-25.216c1.109-8.192 2.048-15.573 2.859-22.144h-1.621l-22.144 62.293-36.907 89.771h-26.24l-36.907-89.771-21.333-62.293h-1.621l2.859 22.144c1.067 8.192 2.048 16.597 2.859 25.216s1.579 17.024 2.261 25.216 1.024 15.701 1.024 22.528v78.72h-64.768z"></path>
</svg>
