<!-- Generated by IcoMoon.io -->
<svg version="1.1" xmlns="http://www.w3.org/2000/svg" width="1024" height="1024" viewBox="0 0 1024 1024">
<title></title>
<g id="icomoon-ignore">
</g>
<path fill="#ea2845" d="M591.584 64c-6.493 0.094-12.684 1.258-18.446 3.324l0.398-0.124c51.68 33.984-9.28 83.2 19.2 124.8-0.441-2.985-0.693-6.43-0.693-9.934 0-26.088 13.967-48.913 34.832-61.406l0.325-0.181c9.12-7.584 14.976-10.304 13.024-22.848-3.168-20.544-30.56-33.632-48.64-33.632zM665.184 77.248c-7.136 35.936-16 37.248-42.336 60.384-13.57 10.767-22.196 27.257-22.196 45.762 0 8.833 1.965 17.206 5.482 24.707l-0.15-0.357c-108.8-42.24-248.256-67.776-350.496 5.312-36.768 26.272-59.2 64-104.544 79.392-29.312 10.048-58.112 7.072-76.48 36.128-6.18 7.667-9.92 17.527-9.92 28.26 0 11.705 4.448 22.371 11.745 30.401l-0.033-0.037c5.472 5.6 16 9.184 20.352 14.88 2.528 3.2 2.464 6.4 4.864 10.656 4.473 10.307 10.56 19.101 18.039 26.488l0.009 0.008c4.704 3.872 20.864 7.648 23.616 11.776 3.456 5.152-5.504 25.6 2.016 28.8 5.056 2.336 19.872-23.808 21.312-26.112-2.944 20.576-6.816 57.088 16.32 26.688 10.976-14.432 11.648-19.2 30.112-22.4 10.436-1.915 22.747-3.246 35.281-3.699l0.463-0.013c2.789-0.104 6.065-0.164 9.355-0.164 139.504 0 254.073 106.755 266.472 243.027l0.076 1.041c-3.456-16-24.352-41.6-43.808-35.52-8.288 2.56-11.36 16.864-16.8 25.152-7.069 10.704-15.383 19.863-24.898 27.601l-0.222 0.175c0.538-4.768 0.845-10.295 0.845-15.894 0-10.824-1.147-21.381-3.325-31.555l0.177 0.984c-5.824 23.936-17.504 63.648-46.912 57.216-20.19-3.167-36.399-17.387-42.393-36.17l-0.103-0.374c-3.808-24.32 21.888-52.832-19.424-54.848-82.88-4.064-63.712 117.824-14.784 149.6-12.036 1.362-23.019 4.561-33.118 9.327l0.638-0.271c31.753 18.753 69.97 29.833 110.775 29.833 110.090 0 201.342-80.651 217.896-186.092l0.161-1.246c3.32 14.513 5.222 31.178 5.222 48.288 0 17.882-2.078 35.279-6.006 51.962l0.304-1.531c-4.434 18.964-10.523 35.598-18.332 51.223l0.604-1.335c-11.14 22.329-25.045 41.446-41.591 57.911l-0.009 0.009c-10.048 9.952-28.48 19.968-34.816 30.112 41.94-5.674 79.922-16.534 115.401-32.053l-2.761 1.077c-37.2 50.557-85.648 90.729-141.798 117.276l-2.266 0.964c128.037-9.326 237.159-82.364 296.64-187.249l0.96-1.839c-10.327 56.756-32.137 107.090-63.016 150.526l0.776-1.15c83.651-56.569 142.286-144.7 158.915-246.93l0.285-2.126c5.247 23.419 8.253 50.316 8.253 77.915 0 12.001-0.568 23.869-1.68 35.58l0.115-1.494c46.784-64.362 74.844-144.965 74.844-232.122 0-37.722-5.256-74.217-15.076-108.791l0.68 2.801c-13.32-48.177-31.781-90.307-55.309-129.018l1.261 2.234c-10.295-17.243-20.213-31.801-30.887-45.75l0.839 1.142c-4.256-5.536-27.008-25.792-27.008-32q-0.288 0.928-0.48 0c0 103.936-112 170.656-205.792 142.816 73.821-5.897 133.164-61.102 145.338-132.398l0.134-0.946c0.983-6.664 1.545-14.356 1.545-22.18 0-70.247-45.27-129.92-108.227-151.438l-1.126-0.334z"></path>
</svg>
