<!-- Generated by IcoMoon.io -->
<svg version="1.1" xmlns="http://www.w3.org/2000/svg" width="1024" height="1024" viewBox="0 0 1024 1024">
<title></title>
<g id="icomoon-ignore">
</g>
<path fill="#e6522c" d="M512 0c-282.752 0-512 229.205-512 512 0 282.752 229.248 512 512 512s512-229.248 512-512c0-282.795-229.248-512-512-512zM512 958.293c-80.427 0-145.664-53.76-145.664-120.064h291.328c0 66.261-65.195 120.021-145.664 120.064zM752.64 798.507h-481.28v-87.296h481.28zM750.933 666.325h-478.251c-1.579-1.835-3.2-3.669-4.736-5.547-49.28-59.776-60.885-91.008-72.107-122.837-0.213-1.067 59.733 12.245 102.187 21.803 0 0 21.888 5.077 53.845 10.88-30.72-35.968-48.939-81.707-48.939-128.427 0-102.656 78.72-192.341 50.347-264.832 27.648 2.261 57.173 58.325 59.179 146.005 29.397-40.576 41.685-114.773 41.685-160.213 0-47.061 31.019-101.76 62.037-103.637-27.648 45.611 7.168 84.651 38.144 181.589 11.605 36.437 10.112 97.707 19.072 136.576 2.987-80.725 16.853-198.485 68.053-239.147-22.571 51.2 3.371 115.285 21.077 146.091 28.629 49.664 45.995 87.339 45.995 158.549-0.176 48.926-18.065 93.641-47.584 128.098l0.224-0.268c33.792-6.357 57.173-12.075 57.173-12.075l109.781-21.419c0 0-15.957 65.621-77.184 128.811z"></path>
</svg>
